<?xml version="1.0" encoding="UTF-8"?>
<svg width="50px" height="30px" viewBox="0 0 50 30" version="1.1" xmlns="http://www.w3.org/2000/svg" xmlns:xlink="http://www.w3.org/1999/xlink">
    <title>tag_home_hot</title>
    <g id="v4.6.0标签样式" stroke="none" stroke-width="1" fill="none" fill-rule="evenodd">
        <g id="hot标签优化" transform="translate(-292.000000, -1003.000000)">
            <g id="Group-5" transform="translate(0.000000, 959.000000)">
                <g id="tag_home_hot" transform="translate(292.000000, 44.000000)">
                    <rect id="矩形备份-9" stroke="#FF3662" x="0.5" y="0.5" width="49" height="29" rx="4"></rect>
                    <path d="M10.863,21.1 L10.863,15.66 L15.623,15.66 L15.623,21.1 L18.122,21.1 L18.122,8.52 L15.623,8.52 L15.623,13.467 L10.863,13.467 L10.863,8.52 L8.347,8.52 L8.347,21.1 L10.863,21.1 Z M26.214,21.338 C29.546,21.338 31.841,18.839 31.841,14.759 C31.841,10.679 29.546,8.282 26.214,8.282 C22.882,8.282 20.587,10.662 20.587,14.759 C20.587,18.839 22.882,21.338 26.214,21.338 Z M26.214,19.162 C24.344,19.162 23.154,17.445 23.154,14.759 C23.154,12.056 24.344,10.441 26.214,10.441 C28.084,10.441 29.274,12.056 29.274,14.759 C29.274,17.445 28.084,19.162 26.214,19.162 Z M39.321,21.1 L39.321,10.611 L42.891,10.611 L42.891,8.52 L33.269,8.52 L33.269,10.611 L36.805,10.611 L36.805,21.1 L39.321,21.1 Z" id="HOT" fill="#FF3662" fill-rule="nonzero"></path>
                </g>
            </g>
        </g>
    </g>
</svg>